<svg xmlns="http://www.w3.org/2000/svg" width="126" height="42" fill="none">
  <path fill="#A47BC3" d="M26.3 38.015h-.986V39h.986v-.985ZM36 38.015h-.984V39H36v-.985ZM31.15 38.015h-.986V39h.985v-.985ZM27.247 17.589h-.985v.985h.985v-.985ZM26.3 10.768h-.986v.985h.986v-.985ZM27.247 3.985h-.985v.985h.985v-.985ZM29.218 3.985h-.986v.985h.986v-.985ZM25.313 3.985h-.985v.985h.985v-.985ZM23.344 10.768h-.948v.986h.948v.985h.985V9.821h-.985v.947ZM29.218 7.85h-.986v.986h.986V7.85ZM29.218 26.343h-.986v.985h.986v-.985ZM28.231 28.314h-.985v.985h.985v-.985ZM26.26 28.314h-.947v.947h-1.97v.985h-.948v-.985h-.985v1.971h.985v.947h.948v1.971h.985v-3.904h1.933v-1.932ZM31.15 11.754h-.986v.985h.985v-.985ZM27.247 11.754h-.985v.985h.985v-.985ZM26.3 24.411h-.986v.985h.986v-.985Z"/>
  <path fill="#A47BC3" d="M26.3 31.232h-.986v.985h.986v-.985ZM31.15 25.396h-.986v.985h.985v-.985ZM27.247 25.396h-.985v.985h.985v-.985ZM28.231 15.657h-.985v.985h.985v-.985ZM27.247 13.686h-.985v.985h.985v-.985ZM29.218 13.686h-.986v.985h.986v-.985ZM27.247 30.246h-.985v.985h.985v-.985ZM29.218 30.246h-.986v.985h.986v-.985ZM30.165 16.604h-.985v.985h.985v-.985ZM33.083 16.604h-.985v.985h.985v-.985ZM28.231 20.507h-.985v.985h.985v-.985ZM23.344 21.492h1.97v-.985h.948V18.574h-.948v-.985h-.985v1.932h-.985v1.971ZM30.165 21.493h-.985v.985h.985v-.985ZM33.083 21.493h-.985v.985h.985v-.985ZM34.067 18.575h-.985v.985h.985v-.985ZM27.247 35.097h-.985v.985h.985v-.985ZM25.313 35.097h-.985v2.918h.985v-.948h.948v-.985h-.948v-.985ZM30.165 34.15h-.985v.985h.985v-.986ZM33.083 34.15h-.985v.985h.985v-.986ZM34.067 36.082h-.985v.985h.985v-.985ZM25.313 12.74h-.985v.984h.985v-.985ZM31.15 27.328h-.986v.985h.985v-.985ZM36 27.328h-.984v.985H36v-.985ZM23.344 27.328h-.948V29.261h.948V27.328ZM34.067 3h-.985v.985h.985V3ZM24.329 3h-.985v.985h.985V3ZM26.3 3h-.986v.985h.986V3ZM27.247 8.836V7.85h-.985v1.97h.985v-.985ZM33.083 8.836h-.985v.985h.985v-.985ZM23.382 8.836h-.986v.985h.986v-.985ZM33.083 29.26h-.985v.986h.985v-.985ZM35.052 33.164h-.986v.985h.986v-.985Z"/>
  <path fill="#A47BC3" d="M24.328 26.343V23.425h.986v-.985H23.38v-.985h-.985v-1.971h-.986v.985h-.985v-.985h.985V18.5h.986v.985h.985v-2.88h-.985v-.985h-.986v-.985h-.985v-1.971h.985v1.971h.986v.985h.985v.985h1.933v-.985h-.986v-1.971h-.985v-.985h-.985v-.985h-.948v-.91h.986v-.985h-.986v-.985h.986v-.985h-.986v-.986h.986v-.985h-1.933v-.91h1.933v.986h.985V3.985h-.985V3h-.986v.985h-.985V3h-1.932v.985h.985v.986h-.985v-.986h-.986V3h-3.903v.985h.986v.986h-.986v-.986h-.985V3H0v36h4.85v-.985h.986V39h10.686v-.985h-.985v-1.971h.985v1.971h.985V39h2.918v-.985h.985V39h1.933v-.985h-.985v-.986h-.948v-.985h.986v.986h.985v-2.956h-.985v-1.971h-.986v-.871h-.985v.985h-.985v-.985h-.985v-.986h.985v.986h.985V29.26h.985v-1.97h.986V25.32h-.986v-.91h.986v-.985h-.986v-.985h-.985v.985h-.985v-.985h-.985v.985h-.985v.985h-.986v.986H15.5v-.986h.985v-.985h.985v-.985h.986v-.985h.985v.985h.985v-.985h.985v.985h.986v.985h.985v.985h-.985v.986h.985v1.97h.985v.986h.986v-.986h.985v-.985h-2.009v-.038Zm-3.903-14.59h-.985v-.985h.985v.986Zm-.947-4.85h.985v.985h-.985v-.985Zm0 1.933v.985h-.985v-.985h.985Zm0 4.85v1.971h-.985v-1.971h.985Zm-.985-6.783v.985h-.986v-.985h-.985v-.985h.985v.985h.986Zm-2.918-2.918h.985v.986h-.985v-.986Zm0 3.866h.985v.985h-.985V7.85Zm0 2.917h.985v-.985h.985v.985h-.985v.986h-.985v-.986Zm0 2.918h.985v.986h-.985v-.986Zm0 2.918v.986h-.986v-.986h.986Zm-1.97 0v.986h-.986v-.986h.985Zm-.948-.947v-.985h.985v.985h-.985Zm.947 5.836v.985h-.985v-.985h.985Zm0 1.932v.985h-.985v-.985h.985Zm0 3.903v-.985h.986v.985h-.986v.986h-.985v-.986h.985Zm0-13.642v-.985h.986v.985h-.986Zm0-7.768h.986v.985h-.986v-.985Zm0 3.903v.947h-.985v-.985h.985v.038ZM9.74 20.507v-1.97h.985v1.97H9.74Zm0-3.903v-.985h.985v.985H9.74Zm0-6.783h-.985v-.985h.985v.985Zm-1.97-5.836h.985v.986h-.986v-.986Zm-.948 7.769h.947v.985h-.985v-.985h.038Zm0 4.85h.947v.986h-.985v-.986h.038Zm0 5.874h.947v.985h-.985v-.985h.038Zm-3.903-11.71h.985v.986h-.985v-.986Zm0 7.807v-.985h.985v.985h-.985Zm.985 5.835v.986h-.985v-.986h.985Zm0 11.672h-.985v-.985h.985v.985Zm.948-7.768h-.986v-.986h.986v.986Zm.985-22.396H4.85v-.985h.985v.985ZM6.82 34.15h.947v.985h-.985v-.985h.038Zm3.865 2.917h-.985v-.985h.985v.985Zm0-6.82h-.985v.985h-.985v-.986H9.7v-.985h.985v.985Zm.986-1.933h-.986v-.986h.986v.986Zm0-1.97h-.986v-.986h.986v.985Zm0-13.605h-.986v-.985h.986v.985Zm0-4.888h.985v.985h-.985V7.85Zm.985 26.299v-1.971h.985v2.956h-.985v-.985Zm1.932 3.865h-.985v-.986h.986v.986Zm.986-2.918h-.986v-.985h.986v.985Zm3.903 2.918h-.985v-.986h.985v.986Zm0-13.605h.985v.986h-.985v-.986Zm-1.97.986h.985v.985h.985v.985h.985v.986h-.985v.985h-.985v-.985h.985v-.986h-.985v-.985h-.986v-.985Zm-.986 1.932h.985v.986h-.985v-.986Zm0 1.933v2.956h.985v.985h.986v.985h.985v.986h.985v-1.971h.947v1.971h-.985v.985h-.985v-.985h-.985v-.986h-.985v-.985h-.986v-.985H15.5V29.26h1.023Zm-.947-6.783h-.986v-.985h.986v.985Zm1.932-.985h-.985v-.986h-.985v-1.97h.985v1.97h.985v.986Zm0-4.889h-.985v-.985h.985v.985Zm0-3.865v-.985h.986v.985h-.986Zm1.97 5.836v-.985h-.984v-.986h.985v.986h.985v-.986h.947v.986h-.985v.985h-.947ZM26.3 33.164h-.986v.985h.986v-.985ZM32.134 6.903h-.986v.985h.986v-.985Z"/>
  <path fill="#A47BC3" d="M22.396 6.903v.947h1.933v1.971h.985V6.903h-.985v-.985h-.985v.985h-.948ZM32.134 22.478h-.986v.985h.986v-.985ZM30.165 5.918h-.985v.985h.985v-.985ZM28.231 5.918h-.985v.985h.985v-.985ZM36 5.918h-.984v.985H36v-.985ZM26.3 5.918h-.986v.985h.986v-.985ZM27.247 37.067h-.985v.986h.985v-.986ZM29.218 37.067h-.986v.986h.986v-.986Z"/>
  <path fill="#A47BC3" d="M44.512 30.689c-1.242 0-2.358-.216-3.348-.648-.972-.45-1.737-1.062-2.295-1.836-.558-.792-.846-1.701-.864-2.727h2.619a3.53 3.53 0 0 0 1.08 2.241c.648.594 1.584.891 2.808.891 1.17 0 2.088-.288 2.754-.864.684-.594 1.026-1.35 1.026-2.268 0-.72-.198-1.305-.594-1.755a3.795 3.795 0 0 0-1.485-1.026c-.594-.234-1.395-.486-2.403-.756-1.242-.324-2.241-.648-2.997-.972-.738-.324-1.377-.828-1.917-1.512-.522-.702-.783-1.638-.783-2.808 0-1.026.26-1.935.783-2.727.522-.792 1.25-1.404 2.187-1.836.954-.432 2.043-.648 3.267-.648 1.764 0 3.204.441 4.32 1.323 1.134.882 1.773 2.052 1.917 3.51h-2.7c-.09-.72-.468-1.35-1.134-1.89-.666-.558-1.548-.837-2.646-.837-1.026 0-1.863.27-2.511.81-.648.522-.972 1.26-.972 2.214 0 .684.189 1.242.567 1.674.396.432.873.765 1.43.999.577.216 1.378.468 2.404.756 1.242.342 2.24.684 2.997 1.026.756.324 1.404.837 1.944 1.539.54.684.81 1.62.81 2.808 0 .918-.243 1.782-.73 2.592-.485.81-1.205 1.467-2.16 1.971-.953.504-2.078.756-3.374.756Zm16.332.054c-1.386 0-2.645-.315-3.78-.945-1.115-.63-1.998-1.521-2.645-2.673-.63-1.17-.945-2.52-.945-4.05 0-1.512.324-2.844.972-3.996.666-1.17 1.566-2.061 2.7-2.673 1.133-.63 2.402-.945 3.806-.945s2.674.315 3.808.945a6.634 6.634 0 0 1 2.672 2.646c.666 1.152 1 2.493 1 4.023 0 1.53-.343 2.88-1.026 4.05a6.95 6.95 0 0 1-2.728 2.673c-1.151.63-2.43.945-3.834.945Zm0-2.16c.883 0 1.71-.207 2.484-.621.775-.414 1.395-1.035 1.864-1.863.486-.828.729-1.836.729-3.024s-.235-2.196-.703-3.024c-.468-.828-1.08-1.44-1.836-1.836a5.034 5.034 0 0 0-2.456-.621c-.9 0-1.729.207-2.485.621-.738.396-1.332 1.008-1.782 1.836-.45.828-.675 1.836-.675 3.024 0 1.206.216 2.223.648 3.051.45.828 1.044 1.449 1.782 1.863a5.058 5.058 0 0 0 2.43.594Zm23.94-12.879V30.5h-2.457v-2.187c-.468.756-1.125 1.35-1.971 1.782-.828.414-1.746.621-2.754.621-1.152 0-2.187-.234-3.105-.702-.918-.486-1.647-1.206-2.187-2.16-.522-.954-.783-2.115-.783-3.483v-8.667h2.43v8.343c0 1.458.369 2.583 1.107 3.375.738.774 1.746 1.161 3.024 1.161 1.314 0 2.349-.405 3.105-1.215.756-.81 1.134-1.989 1.134-3.537v-8.127h2.457Zm6.605-5.184V30.5h-2.456V10.52h2.456Zm22.51 15.795h-8.208l-1.512 4.185h-2.592l6.804-18.711h2.835l6.777 18.711h-2.592l-1.512-4.185Zm-.702-1.998-3.402-9.504-3.402 9.504h6.804Zm10.229-12.636V30.5h-2.457V11.681h2.457Z"/>
</svg>
