<svg width="620" height="620" viewBox="0 0 620 620" fill="none" xmlns="http://www.w3.org/2000/svg">
<path d="M452.301 602.319H435.359V619.261H452.301V602.319Z" fill="#A47BC3"/>
<path d="M619.124 602.319H602.182V619.261H619.124V602.319Z" fill="#A47BC3"/>
<path d="M535.717 602.319H518.775V619.261H535.717V602.319Z" fill="#A47BC3"/>
<path d="M468.59 251.095H451.648V268.037H468.59V251.095Z" fill="#A47BC3"/>
<path d="M452.301 133.807H435.359V150.749H452.301V133.807Z" fill="#A47BC3"/>
<path d="M468.59 17.1662H451.648V34.1084H468.59V17.1662Z" fill="#A47BC3"/>
<path d="M502.478 17.1662H485.536V34.1084H502.478V17.1662Z" fill="#A47BC3"/>
<path d="M435.364 17.1662H418.422V34.1084H435.364V17.1662Z" fill="#A47BC3"/>
<path d="M401.475 133.801H385.185V150.743H401.475V167.685H418.417V117.51H401.475V133.801Z" fill="#A47BC3"/>
<path d="M502.478 83.6299H485.536V100.572H502.478V83.6299Z" fill="#A47BC3"/>
<path d="M502.478 401.623H485.536V418.565H502.478V401.623Z" fill="#A47BC3"/>
<path d="M485.534 435.502H468.592V452.445H485.534V435.502Z" fill="#A47BC3"/>
<path d="M451.673 435.503H435.382V451.793H401.498V468.735H385.207V451.793H368.265V485.678H385.207V501.968H401.498V535.852H418.44V468.735H451.673V435.503Z" fill="#A47BC3"/>
<path d="M535.717 150.742H518.775V167.684H535.717V150.742Z" fill="#A47BC3"/>
<path d="M468.59 150.742H451.648V167.684H468.59V150.742Z" fill="#A47BC3"/>
<path d="M452.301 368.382H435.359V385.324H452.301V368.382Z" fill="#A47BC3"/>
<path d="M452.301 485.679H435.359V502.621H452.301V485.679Z" fill="#A47BC3"/>
<path d="M535.717 385.326H518.775V402.269H535.717V385.326Z" fill="#A47BC3"/>
<path d="M468.59 385.326H451.648V402.269H468.59V385.326Z" fill="#A47BC3"/>
<path d="M485.534 217.862H468.592V234.804H485.534V217.862Z" fill="#A47BC3"/>
<path d="M468.59 183.974H451.648V200.916H468.59V183.974Z" fill="#A47BC3"/>
<path d="M502.478 183.974H485.536V200.916H502.478V183.974Z" fill="#A47BC3"/>
<path d="M468.59 468.734H451.648V485.676H468.59V468.734Z" fill="#A47BC3"/>
<path d="M502.478 468.734H485.536V485.676H502.478V468.734Z" fill="#A47BC3"/>
<path d="M518.773 234.15H501.831V251.092H518.773V234.15Z" fill="#A47BC3"/>
<path d="M568.949 234.15H552.007V251.092H568.949V234.15Z" fill="#A47BC3"/>
<path d="M485.534 301.271H468.592V318.213H485.534V301.271Z" fill="#A47BC3"/>
<path d="M401.492 318.212H435.377V301.269H451.667V268.037H435.377V251.095H418.435V284.327H401.492V318.212Z" fill="#A47BC3"/>
<path d="M518.773 318.215H501.831V335.157H518.773V318.215Z" fill="#A47BC3"/>
<path d="M568.949 318.215H552.007V335.157H568.949V318.215Z" fill="#A47BC3"/>
<path d="M585.885 268.039H568.943V284.981H585.885V268.039Z" fill="#A47BC3"/>
<path d="M468.59 552.143H451.648V569.085H468.59V552.143Z" fill="#A47BC3"/>
<path d="M435.364 552.143H418.422V602.318H435.364V586.027H451.654V569.085H435.364V552.143Z" fill="#A47BC3"/>
<path d="M518.773 535.855H501.831V552.797H518.773V535.855Z" fill="#A47BC3"/>
<path d="M568.949 535.855H552.007V552.797H568.949V535.855Z" fill="#A47BC3"/>
<path d="M585.885 569.087H568.943V586.029H585.885V569.087Z" fill="#A47BC3"/>
<path d="M435.364 167.686H418.422V184.629H435.364V167.686Z" fill="#A47BC3"/>
<path d="M535.717 418.558H518.775V435.5H535.717V418.558Z" fill="#A47BC3"/>
<path d="M619.124 418.558H602.182V435.5H619.124V418.558Z" fill="#A47BC3"/>
<path d="M401.475 418.558H385.185V451.791H401.475V418.558Z" fill="#A47BC3"/>
<path d="M585.885 0.22229H568.943V17.1645H585.885V0.22229Z" fill="#A47BC3"/>
<path d="M418.435 0.22229H401.492V17.1645H418.435V0.22229Z" fill="#A47BC3"/>
<path d="M452.301 0.22229H435.359V17.1645H452.301V0.22229Z" fill="#A47BC3"/>
<path d="M468.59 83.6299H451.648V117.514H468.59V83.6299Z" fill="#A47BC3"/>
<path d="M568.949 100.566H552.007V117.508H568.949V100.566Z" fill="#A47BC3"/>
<path d="M402.127 100.565H385.185V117.508H402.127V100.565Z" fill="#A47BC3"/>
<path d="M568.949 451.79H552.007V468.733H568.949V451.79Z" fill="#A47BC3"/>
<path d="M602.834 518.911H585.892V535.853H602.834V518.911Z" fill="#A47BC3"/>
<path d="M418.423 351.447H435.365V334.504H402.133V317.562H385.191V283.678H368.248V300.62H351.306V283.678H368.248V266.736H385.191V283.678H402.133V234.155H385.191V217.212H368.248V200.27H351.306V166.386H368.248V200.27H385.191V217.212H402.133V234.155H435.365V217.212H418.423V183.328H401.481V166.386H384.539V149.444H368.248V133.805H385.191V116.863H368.248V99.9204H385.191V82.9783H368.248V66.0361H385.191V49.0939H351.958V33.455H385.191V50.3972H402.133V17.1645H385.191V0.22229H368.248V17.1645H351.306V0.22229H318.074V17.1645H335.016V34.1066H318.074V17.1645H301.131V0.22229H234.014V17.1645H250.956V34.1066H234.014V17.1645H217.072V0.22229H0.0820312V619.263H83.4896V602.321H100.432V619.263H284.189V602.321H267.247V568.437H284.189V602.321H301.131V619.263H351.306V602.321H368.248V619.263H401.481V602.321H384.539V585.379H368.248V568.437H385.191V585.379H402.133V534.552H385.191V500.668H368.248V485.681H351.306V502.623H334.364V485.681H317.422V468.738H334.364V485.681H351.306V451.796H368.248V417.912H385.191V384.028H368.248V368.389H385.191V351.447H368.248V334.504H351.306V351.447H334.364V334.504H317.422V351.447H300.48V368.389H283.538V385.331H266.595V368.389H283.538V351.447H300.48V334.504H317.422V317.562H334.364V334.504H351.306V317.562H368.248V334.504H385.191V351.447H402.133V368.389H385.191V385.331H402.133V419.215H419.075V436.157H436.017V419.215H452.959V402.273H418.423V351.447ZM351.306 150.747H334.364V133.805H351.306V150.747ZM335.016 67.3393H351.958V84.2815H335.016V67.3393ZM335.016 100.572V117.514H318.074V100.572H335.016ZM335.016 183.98V217.864H318.074V183.98H335.016ZM318.074 67.3393V84.2815H301.131V67.3393H284.189V50.3972H301.131V67.3393H318.074ZM267.899 17.1645H284.841V34.1066H267.899V17.1645ZM267.899 83.6299H284.841V100.572H267.899V83.6299ZM267.899 133.805H284.841V116.863H301.783V133.805H284.841V150.747H267.899V133.805ZM267.899 183.98H284.841V200.922H267.899V183.98ZM267.899 234.155V251.097H250.956V234.155H267.899ZM234.014 234.155V251.097H217.072V234.155H234.014ZM217.724 217.864V200.922H234.666V217.864H217.724ZM234.014 318.214V335.156H217.072V318.214H234.014ZM234.014 351.447V368.389H217.072V351.447H234.014ZM234.014 418.564V401.621H250.956V418.564H234.014V435.506H217.072V418.564H234.014ZM234.014 183.98V167.038H250.956V183.98H234.014ZM234.014 50.3972H250.956V67.3393H234.014V50.3972ZM234.014 133.805H217.072V116.863H234.014V133.805ZM167.549 301.272V267.387H184.491V301.272H167.549ZM167.549 234.155V217.212H184.491V234.155H167.549ZM167.549 117.514H150.607V100.572H167.549V117.514ZM133.665 17.1645H150.607V34.1066H133.665V17.1645ZM133.665 150.747V167.689H116.722V150.747H133.665ZM133.665 234.155V251.097H116.722V234.155H133.665ZM133.665 335.156V352.098H116.722V335.156H133.665ZM50.2569 133.805H67.1991V150.747H50.2569V133.805ZM50.2569 268.039V251.097H67.1991V268.039H50.2569ZM67.1991 368.389V385.331H50.2569V368.389H67.1991ZM67.1991 569.088H50.2569V552.146H67.1991V569.088ZM83.4896 435.506H66.5475V418.564H83.4896V435.506ZM100.432 50.3972H83.4896V33.455H100.432V50.3972ZM133.665 535.855V552.798H116.722V535.855H133.665ZM183.839 586.03H166.897V569.088H183.839V586.03ZM183.839 468.738H166.897V485.681H149.955V468.738H166.897V451.796H183.839V468.738ZM200.782 435.506H183.839V418.564H200.782V435.506ZM200.782 401.621H183.839V384.679H200.782V401.621ZM200.782 167.689H183.839V150.747H200.782V167.689ZM200.782 83.6299H217.724V100.572H200.782V83.6299ZM217.724 501.971H234.666V552.798H217.724V501.971ZM250.956 602.321H234.014V585.379H250.956V602.321ZM267.899 552.146H250.956V535.204H267.899V552.146ZM335.016 602.321H318.074V585.379H335.016V602.321ZM335.016 368.389H351.958V385.331H335.016V368.389ZM301.131 385.331H318.074V402.273H335.016V419.215H351.958V436.157H335.016V453.1H318.074V436.157H335.016V419.215H318.074V402.273H301.131V385.331ZM284.189 418.564H301.131V435.506H284.189V418.564ZM284.189 451.796V502.623H301.131V519.565H318.074V536.507H335.016V553.449H351.958V519.565H368.248V553.449H351.306V570.391H334.364V553.449H317.422V536.507H300.48V519.565H283.538V502.623H266.595V451.796H284.189ZM267.899 335.156H250.956V318.214H267.899V335.156ZM301.131 318.214H284.189V301.272H267.247V267.387H284.189V301.272H301.131V318.214ZM301.131 234.155H284.189V217.212H301.131V234.155ZM301.131 167.689V150.747H318.074V167.689H301.131ZM335.016 268.039V251.097H318.074V234.155H335.016V251.097H351.958V234.155H368.248V251.097H351.306V268.039H335.016Z" fill="#A47BC3"/>
<path d="M452.301 518.911H435.359V535.853H452.301V518.911Z" fill="#A47BC3"/>
<path d="M552.658 67.3339H535.716V84.2761H552.658V67.3339Z" fill="#A47BC3"/>
<path d="M385.185 67.3408V83.6314H418.417V117.516H435.36V67.3408H418.417V50.3987H401.475V67.3408H385.185Z" fill="#A47BC3"/>
<path d="M552.658 335.15H535.716V352.092H552.658V335.15Z" fill="#A47BC3"/>
<path d="M518.773 50.3987H501.831V67.3408H518.773V50.3987Z" fill="#A47BC3"/>
<path d="M485.534 50.3986H468.592V67.3408H485.534V50.3986Z" fill="#A47BC3"/>
<path d="M619.124 50.3987H602.182V67.3408H619.124V50.3987Z" fill="#A47BC3"/>
<path d="M452.301 50.3987H435.359L435.36 67.3408H452.301V50.3987Z" fill="#A47BC3"/>
<path d="M468.59 586.031H451.648V602.973H468.59V586.031Z" fill="#A47BC3"/>
<path d="M502.478 586.031H485.536V602.973H502.478V586.031Z" fill="#A47BC3"/>
</svg>
